<?xml version="1.0" encoding="UTF-8" standalone="no"?>
<!-- Created with Inkscape (http://www.inkscape.org/) -->

<svg
   width="46.883247mm"
   height="46.883247mm"
   viewBox="0 0 46.883247 46.883247"
   version="1.1"
   id="svg5"
   inkscape:version="1.2.1 (9c6d41e410, 2022-07-14, custom)"
   sodipodi:docname="favicon.svg"
   xmlns:inkscape="http://www.inkscape.org/namespaces/inkscape"
   xmlns:sodipodi="http://sodipodi.sourceforge.net/DTD/sodipodi-0.dtd"
   xmlns="http://www.w3.org/2000/svg"
   xmlns:svg="http://www.w3.org/2000/svg">
  <sodipodi:namedview
     id="namedview7"
     pagecolor="#ffffff"
     bordercolor="#666666"
     borderopacity="1.0"
     inkscape:showpageshadow="2"
     inkscape:pageopacity="0.0"
     inkscape:pagecheckerboard="0"
     inkscape:deskcolor="#d1d1d1"
     inkscape:document-units="mm"
     showgrid="false"
     inkscape:zoom="2.3736162"
     inkscape:cx="36.652934"
     inkscape:cy="100.26895"
     inkscape:window-width="1900"
     inkscape:window-height="1002"
     inkscape:window-x="10"
     inkscape:window-y="38"
     inkscape:window-maximized="0"
     inkscape:current-layer="layer1" />
  <defs
     id="defs2" />
  <g
     inkscape:label="Layer 1"
     inkscape:groupmode="layer"
     id="layer1"
     transform="translate(-39.654152,-60.621479)">
    <rect
       style="opacity:1;fill:#000000;fill-opacity:1;stroke:none;stroke-width:0.380862;stroke-miterlimit:4;stroke-dasharray:none;stroke-opacity:1"
       id="rect2463"
       width="46.883247"
       height="46.883247"
       x="39.654152"
       y="60.621479" />
    <g
       aria-label="A"
       id="text1681"
       style="font-size:50.8px;line-height:79.375px;font-family:'Clear Sans';-inkscape-font-specification:'Clear Sans, Normal';letter-spacing:0px;word-spacing:0px;fill:#c3fae8;stroke-width:0.264583px">
      <path
         d="m 80.827925,100.33344 -11.2268,-30.429203 c -0.4572,-1.0668 -0.9652,-1.5748 -2.0828,-1.5748 h -4.8768 c -1.1176,0 -1.6764,0.508 -2.0828,1.5748 L 49.281126,100.33344 c -0.254,0.6096 -0.254,1.4224 0.8636,1.4224 h 5.333999 c 1.1176,0 1.524,-0.3048 1.9304,-1.524 l 1.4224,-4.013203 h 12.446 l 1.4224,4.013203 c 0.4064,1.2192 0.8128,1.524 1.9304,1.524 h 5.334 c 1.1176,0 1.1176,-0.8128 0.8636,-1.4224 z m -19.558,-11.226803 3.81,-11.2268 3.81,11.2268 z"
         style="font-family:Archive;-inkscape-font-specification:Archive"
         id="path4763" />
    </g>
    <g
       aria-label="A"
       id="text113"
       style="font-size:50.8px;line-height:79.375px;font-family:'Clear Sans';-inkscape-font-specification:'Clear Sans, Normal';letter-spacing:0px;word-spacing:0px;stroke-width:0.264583px">
      <path
         d="m 76.374522,97.286417 -11.2268,-30.4292 c -0.4572,-1.0668 -0.9652,-1.5748 -2.0828,-1.5748 h -4.8768 c -1.1176,0 -1.6764,0.508 -2.0828,1.5748 l -11.2776,30.4292 c -0.254,0.6096 -0.254,1.4224 0.8636,1.4224 h 5.334 c 1.1176,0 1.524,-0.3048 1.9304,-1.524 l 1.4224,-4.0132 h 12.446 l 1.4224,4.0132 c 0.4064,1.2192 0.8128,1.524 1.9304,1.524 h 5.334 c 1.1176,0 1.1176,-0.8128 0.8636,-1.4224 z m -19.558,-11.2268 3.81,-11.2268 3.81,11.2268 z"
         style="font-family:Archive;-inkscape-font-specification:Archive;fill:#099268"
         id="path4760" />
    </g>
  </g>
</svg>
